<?xml version="1.0" encoding="UTF-8"?>
<svg xmlns="http://www.w3.org/2000/svg" version="1.1" viewBox="0 0 256 256">
  <defs>
    <style>
      .cls-1 {
        fill: #a176f4;
      }

      .cls-2 {
        fill: #fff;
      }
    </style>
  </defs>
  <!-- Generator: Adobe Illustrator 28.7.1, SVG Export Plug-In . SVG Version: 1.2.0 Build 142)  -->
  <g>
    <g id="Ebene_1">
      <g>
        <path class="cls-1" d="M256,128C256,57.3,198.7,0,128,0S0,57.3,0,128s57.3,128,128,128,128-57.3,128-128h0ZM128,244.8c-64.5,0-116.7-52.3-116.7-116.8S63.5,11.2,128,11.2s14,.6,20.8,1.8c-29.8,14.6-53,40.6-64.2,72.2-3.2.6-6,1.4-8.4,2.6-.4.2-.7.4-1.1.5v-1.9h-28.8l-1.3,2.9c-1.1,2.4-2.5,4.7-4.2,6.8-1.6,2.1-3.4,3.9-5.3,5.3-1.8,1.4-3.7,2.6-5.6,3.4l-3.1,1.3v18.8l7.1-3.4c2-1,4.1-2.3,6.5-4.1v52.2h34.7v-1.9s.2.1.3.1c2.6,1.3,5.7,2.3,9.2,2.9,11.2,31.6,34.4,57.6,64.2,72.3-6.7,1.2-13.7,1.8-20.8,1.8ZM108.8,128c5.8,1.1,9.9,3.3,12.3,6.5h0c2.3,3.2,3.5,7.5,3.5,13s-1.2,8.3-3.5,11.1c-2.3,2.8-5.6,4.9-9.9,6.1-4.3,1.3-9.5,1.9-15.6,1.9s-13.8-1.1-18-3.3c-.9-.5-1.8-1-2.6-1.6v-25.6h17.3c-.7,2.7-1.1,5.4-1.1,7.8,0,3.5.3,5.9,1,7.1.7,1.2,1.7,1.9,3.1,1.9s2.3-.7,2.9-2.2c.5-1.4.8-4.2.8-8.2s-.1-5-.3-6.5c-.2-1.6-.7-2.8-1.6-3.8-.9-1-2.2-1.5-4.1-1.5s-2.3.1-3.2.4v-7.4c.9.1,2,.2,3.2.2s2.8-.3,3.6-.8,1.3-1.5,1.6-2.9c.3-1.4.4-3.5.4-6.2,0-4.3-.2-7.1-.8-8.6-.5-1.5-1.4-2.2-2.6-2.2s-2,.5-2.6,1.4c-.5.9-.8,3-.8,6.1s.3,4.6,1,6.9h-17.9v-23.3c1-.7,2.1-1.3,3.3-1.9,4.2-2,10-2.9,17.4-2.9,5.8,0,10.6.6,14.6,2,4,1.4,7,3.5,9.1,6.4,2.1,2.9,3.2,6.6,3.2,11.1s-.3,5.9-1,8.2c-.6,2.3-2,4.3-4,6-2,1.7-4.9,2.8-8.8,3.5l-2.2.3v.9l2.2.3ZM77.3,131.2h-2.2v-8.8h2.2c0,1.8-.1,3.7-.1,5.6s0,2.1,0,3.2ZM48.4,102.9c-2.8,3.3-5.7,6.2-8.8,8.7s-5.7,4.3-7.9,5.4v-7.6c2.3-1,4.6-2.3,6.8-4,2.2-1.7,4.2-3.8,6.1-6.1,1.9-2.4,3.5-4.9,4.8-7.8h0s20.7,0,20.7,0v73.1h-24.8v-56.7l3.8-4.5-.7-.5ZM171.1,145.9v18.6h-49c1.1-.9,2-1.8,2.9-2.9,3-3.7,4.5-8.5,4.5-14.2s0-3-.2-4.4c.2-.1.5-.2.7-.3,4.7-2.1,9.1-5.7,13.1-10.7,4.1-5,6.1-11.7,6.1-20s-.1-3.9-.3-5.3c-.2-1.3-.6-2.3-1.1-2.9s-1.3-.9-2.2-.9c-1.6,0-2.7.7-3.4,2.1-.7,1.4-1,4-1,7.9s.1,4.2.4,6.1c.3,1.9.7,3.7,1.3,5.5h-20.1c1.6-1.9,2.8-4,3.5-6.3.8-2.7,1.2-5.9,1.2-9.5s-.9-8.5-2.7-11.9c1.4-1.6,3.2-3,5.2-4.1,4.1-2.3,9.8-3.5,17.1-3.5s11.1.9,14.9,2.8c3.7,1.9,6.4,4.6,8,8.1,1.6,3.6,2.4,8.1,2.4,13.5s-2,12.6-5.9,17.1c-3.9,4.5-8.5,7.9-13.8,10.1-5.3,2.2-10.2,3.5-14.7,3.9v1h33.1ZM223,145.9v18.6h-47v-19.5c1.7-.5,3.7-1.3,6-2.3,4.7-2.1,9.1-5.7,13.1-10.7s6.1-11.7,6.1-20-.1-3.9-.3-5.3c-.2-1.3-.6-2.3-1.1-2.9s-1.3-.9-2.2-.9c-1.6,0-2.7.7-3.4,2.1-.7,1.4-1,4-1,7.9s.1,4.2.4,6.1c.3,1.9.7,3.7,1.3,5.5h-19.3c1.1-3.3,1.7-7,1.7-10.9,0-5.6-.8-10.5-2.4-14.5,1.6-2.6,3.9-4.8,6.9-6.5,4.1-2.3,9.8-3.5,17.1-3.5s11.1.9,14.9,2.8c3.7,1.9,6.4,4.6,8,8.1,1.6,3.6,2.4,8.1,2.4,13.5s-2,12.6-5.9,17.1c-3.9,4.5-8.5,7.9-13.8,10.1-5.3,2.2-10.2,3.5-14.7,3.9v1h33.1Z"/>
        <path class="cls-1" d="M256,128C256,57.3,198.7,0,128,0S0,57.3,0,128s57.3,128,128,128,128-57.3,128-128h0ZM128,244.8c-64.5,0-116.7-52.3-116.7-116.8S63.5,11.2,128,11.2s14,.6,20.8,1.8c-29.8,14.6-53,40.6-64.2,72.2-3.2.6-6,1.4-8.4,2.6-.4.2-.7.4-1.1.5v-1.9h-28.8l-1.3,2.9c-1.1,2.4-2.5,4.7-4.2,6.8-1.6,2.1-3.4,3.9-5.3,5.3-1.8,1.4-3.7,2.6-5.6,3.4l-3.1,1.3v18.8l7.1-3.4c2-1,4.1-2.3,6.5-4.1v52.2h34.7v-1.9s.2.1.3.1c2.6,1.3,5.7,2.3,9.2,2.9,11.2,31.6,34.4,57.6,64.2,72.3-6.7,1.2-13.7,1.8-20.8,1.8ZM108.8,128c5.8,1.1,9.9,3.3,12.3,6.5h0c2.3,3.2,3.5,7.5,3.5,13s-1.2,8.3-3.5,11.1c-2.3,2.8-5.6,4.9-9.9,6.1-4.3,1.3-9.5,1.9-15.6,1.9s-13.8-1.1-18-3.3c-.9-.5-1.8-1-2.6-1.6v-25.6h17.3c-.7,2.7-1.1,5.4-1.1,7.8,0,3.5.3,5.9,1,7.1.7,1.2,1.7,1.9,3.1,1.9s2.3-.7,2.9-2.2c.5-1.4.8-4.2.8-8.2s-.1-5-.3-6.5c-.2-1.6-.7-2.8-1.6-3.8-.9-1-2.2-1.5-4.1-1.5s-2.3.1-3.2.4v-7.4c.9.1,2,.2,3.2.2s2.8-.3,3.6-.8,1.3-1.5,1.6-2.9c.3-1.4.4-3.5.4-6.2,0-4.3-.2-7.1-.8-8.6-.5-1.5-1.4-2.2-2.6-2.2s-2,.5-2.6,1.4c-.5.9-.8,3-.8,6.1s.3,4.6,1,6.9h-17.9v-23.3c1-.7,2.1-1.3,3.3-1.9,4.2-2,10-2.9,17.4-2.9,5.8,0,10.6.6,14.6,2,4,1.4,7,3.5,9.1,6.4,2.1,2.9,3.2,6.6,3.2,11.1s-.3,5.9-1,8.2c-.6,2.3-2,4.3-4,6-2,1.7-4.9,2.8-8.8,3.5l-2.2.3v.9l2.2.3ZM77.3,131.2h-2.2v-8.8h2.2c0,1.8-.1,3.7-.1,5.6s0,2.1,0,3.2ZM48.4,102.9c-2.8,3.3-5.7,6.2-8.8,8.7s-5.7,4.3-7.9,5.4v-7.6c2.3-1,4.6-2.3,6.8-4,2.2-1.7,4.2-3.8,6.1-6.1,1.9-2.4,3.5-4.9,4.8-7.8h0s20.7,0,20.7,0v73.1h-24.8v-56.7l3.8-4.5-.7-.5ZM171.1,145.9v18.6h-49c1.1-.9,2-1.8,2.9-2.9,3-3.7,4.5-8.5,4.5-14.2s0-3-.2-4.4c.2-.1.5-.2.7-.3,4.7-2.1,9.1-5.7,13.1-10.7,4.1-5,6.1-11.7,6.1-20s-.1-3.9-.3-5.3c-.2-1.3-.6-2.3-1.1-2.9s-1.3-.9-2.2-.9c-1.6,0-2.7.7-3.4,2.1-.7,1.4-1,4-1,7.9s.1,4.2.4,6.1c.3,1.9.7,3.7,1.3,5.5h-20.1c1.6-1.9,2.8-4,3.5-6.3.8-2.7,1.2-5.9,1.2-9.5s-.9-8.5-2.7-11.9c1.4-1.6,3.2-3,5.2-4.1,4.1-2.3,9.8-3.5,17.1-3.5s11.1.9,14.9,2.8c3.7,1.9,6.4,4.6,8,8.1,1.6,3.6,2.4,8.1,2.4,13.5s-2,12.6-5.9,17.1c-3.9,4.5-8.5,7.9-13.8,10.1-5.3,2.2-10.2,3.5-14.7,3.9v1h33.1ZM223,145.9v18.6h-47v-19.5c1.7-.5,3.7-1.3,6-2.3,4.7-2.1,9.1-5.7,13.1-10.7s6.1-11.7,6.1-20-.1-3.9-.3-5.3c-.2-1.3-.6-2.3-1.1-2.9s-1.3-.9-2.2-.9c-1.6,0-2.7.7-3.4,2.1-.7,1.4-1,4-1,7.9s.1,4.2.4,6.1c.3,1.9.7,3.7,1.3,5.5h-19.3c1.1-3.3,1.7-7,1.7-10.9,0-5.6-.8-10.5-2.4-14.5,1.6-2.6,3.9-4.8,6.9-6.5,4.1-2.3,9.8-3.5,17.1-3.5s11.1.9,14.9,2.8c3.7,1.9,6.4,4.6,8,8.1,1.6,3.6,2.4,8.1,2.4,13.5s-2,12.6-5.9,17.1c-3.9,4.5-8.5,7.9-13.8,10.1-5.3,2.2-10.2,3.5-14.7,3.9v1h33.1Z"/>
        <path class="cls-2" d="M77.2,128c0,1.1,0,2.1,0,3.2h-2.2v-8.8h2.2c0,1.8-.1,3.7-.1,5.6Z"/>
        <path class="cls-2" d="M70.2,91.4v73.1h-24.8v-56.7l3.8-4.5-.7-.5c-2.8,3.3-5.7,6.2-8.8,8.7s-5.7,4.3-7.9,5.4v-7.6c2.3-1,4.6-2.3,6.8-4,2.2-1.7,4.2-3.8,6.1-6.1,1.9-2.4,3.5-4.9,4.8-7.8h0s20.7,0,20.7,0Z"/>
        <path class="cls-2" d="M148.7,242.9c-6.7,1.2-13.7,1.8-20.8,1.8-64.5,0-116.7-52.3-116.7-116.8S63.5,11.2,128,11.2s14,.6,20.8,1.8c-29.8,14.6-53,40.6-64.2,72.2-3.2.6-6,1.4-8.4,2.6-.4.2-.7.4-1.1.5v-1.9h-28.8l-1.3,2.9c-1.1,2.4-2.5,4.7-4.2,6.8-1.6,2.1-3.4,3.9-5.3,5.3-1.8,1.4-3.7,2.6-5.6,3.4l-3.1,1.3v18.8l7.1-3.4c2-1,4.1-2.3,6.5-4.1v52.2h34.7v-1.9s.2.1.3.1c2.6,1.3,5.7,2.3,9.2,2.9,11.2,31.6,34.4,57.6,64.2,72.3Z"/>
        <path class="cls-2" d="M124.6,147.5c0,4.6-1.2,8.3-3.5,11.1-2.3,2.8-5.6,4.9-9.9,6.1-4.3,1.3-9.5,1.9-15.6,1.9s-13.8-1.1-18-3.3c-.9-.5-1.8-1-2.6-1.6v-25.6h17.3c-.7,2.7-1.1,5.4-1.1,7.8,0,3.5.3,5.9,1,7.1.7,1.2,1.7,1.9,3.1,1.9s2.3-.7,2.9-2.2c.5-1.4.8-4.2.8-8.2s-.1-5-.3-6.5c-.2-1.6-.7-2.8-1.6-3.8-.9-1-2.2-1.5-4.1-1.5s-2.3.1-3.2.4v-7.4c.9.1,2,.2,3.2.2s2.8-.3,3.6-.8,1.3-1.5,1.6-2.9c.3-1.4.4-3.5.4-6.2,0-4.3-.2-7.1-.8-8.6-.5-1.5-1.4-2.2-2.6-2.2s-2,.5-2.6,1.4c-.5.9-.8,3-.8,6.1s.3,4.6,1,6.9h-17.9v-23.3c1-.7,2.1-1.3,3.3-1.9,4.2-2,10-2.9,17.4-2.9,5.8,0,10.6.6,14.6,2,4,1.4,7,3.5,9.1,6.4,2.1,2.9,3.2,6.6,3.2,11.1s-.3,5.9-1,8.2c-.6,2.3-2,4.3-4,6-2,1.7-4.9,2.8-8.8,3.5l-2.2.3v.9l2.2.3c5.8,1.1,9.9,3.3,12.3,6.5h0c2.3,3.2,3.5,7.5,3.5,13Z"/>
        <path class="cls-2" d="M138,145.9h33.1v18.6h-49c1.1-.9,2-1.8,2.9-2.9,3-3.7,4.5-8.5,4.5-14.2s0-3-.2-4.4c.2-.1.5-.2.7-.3,4.7-2.1,9.1-5.7,13.1-10.7,4.1-5,6.1-11.7,6.1-20s-.1-3.9-.3-5.3c-.2-1.3-.6-2.3-1.1-2.9s-1.3-.9-2.2-.9c-1.6,0-2.7.7-3.4,2.1-.7,1.4-1,4-1,7.9s.1,4.2.4,6.1c.3,1.9.7,3.7,1.3,5.5h-20.1c1.6-1.9,2.8-4,3.5-6.3.8-2.7,1.2-5.9,1.2-9.5s-.9-8.5-2.7-11.9c1.4-1.6,3.2-3,5.2-4.1,4.1-2.3,9.8-3.5,17.1-3.5s11.1.9,14.9,2.8c3.7,1.9,6.4,4.6,8,8.1,1.6,3.6,2.4,8.1,2.4,13.5s-2,12.6-5.9,17.1c-3.9,4.5-8.5,7.9-13.8,10.1-5.3,2.2-10.2,3.5-14.7,3.9v1Z"/>
        <path class="cls-2" d="M189.9,145.9h33.1v18.6h-47v-19.5c1.7-.5,3.7-1.3,6-2.3,4.7-2.1,9.1-5.7,13.1-10.7s6.1-11.7,6.1-20-.1-3.9-.3-5.3c-.2-1.3-.6-2.3-1.1-2.9s-1.3-.9-2.2-.9c-1.6,0-2.7.7-3.4,2.1-.7,1.4-1,4-1,7.9s.1,4.2.4,6.1c.3,1.9.7,3.7,1.3,5.5h-19.3c1.1-3.3,1.7-7,1.7-10.9,0-5.6-.8-10.5-2.4-14.5,1.6-2.6,3.9-4.8,6.9-6.5,4.1-2.3,9.8-3.5,17.1-3.5s11.1.9,14.9,2.8c3.7,1.9,6.4,4.6,8,8.1,1.6,3.6,2.4,8.1,2.4,13.5s-2,12.6-5.9,17.1c-3.9,4.5-8.5,7.9-13.8,10.1-5.3,2.2-10.2,3.5-14.7,3.9v1Z"/>
      </g>
    </g>
  </g>
</svg>