<?xml version="1.0" encoding="UTF-8"?>
<svg id="Ebene_2" xmlns="http://www.w3.org/2000/svg" viewBox="0 0 126.77 126.77">
  <defs>
    <style>
      .cls-1 {
        fill: #cdfb7c;
      }

      .cls-2 {
        fill: #fff;
      }
    </style>
  </defs>
  <g id="Ebene_2-2" data-name="Ebene_2">
    <g>
      <g>
        <path class="cls-1" d="M126.77,63.38c0,35.01-28.38,63.38-63.38,63.38S0,98.39,0,63.38,28.38,0,63.38,0s63.38,28.38,63.38,63.38Z"/>
        <path class="cls-1" d="M126.77,63.38c0,35.01-28.38,63.38-63.38,63.38S0,98.39,0,63.38,28.38,0,63.38,0s63.38,28.38,63.38,63.38Z"/>
      </g>
      <g>
        <path class="cls-2" d="M37.19,60.63v4.34h1.09c-.01-.53-.03-1.05-.03-1.58,0-.92.03-1.84.07-2.75h-1.12Z"/>
        <path class="cls-2" d="M41.86,84.52c-1.75-.32-3.26-.8-4.54-1.46-.05-.02-.09-.05-.14-.07v.96h-17.19v-25.85c-1.17.89-2.23,1.56-3.22,2.04l-3.52,1.7v-9.32l1.52-.62c.94-.39,1.88-.95,2.79-1.66.93-.73,1.82-1.61,2.63-2.63.81-1.02,1.5-2.14,2.07-3.35l.66-1.42h14.27v.94c.18-.09.36-.18.55-.27,1.19-.56,2.56-.98,4.13-1.26,5.54-15.65,17.05-28.49,31.8-35.75-3.34-.6-6.77-.91-10.28-.91C31.45,5.57,5.57,31.45,5.57,63.38s25.88,57.81,57.81,57.81c3.51,0,6.95-.31,10.28-.91-14.75-7.26-26.26-20.1-31.8-35.76Z"/>
      </g>
      <path class="cls-2" d="M94.02,71.75c2.24-.2,4.68-.85,7.3-1.94,2.62-1.09,4.9-2.75,6.84-5,1.94-2.24,2.91-5.07,2.91-8.47,0-2.69-.4-4.91-1.2-6.68-.8-1.77-2.13-3.11-3.98-4.03-1.85-.92-4.31-1.38-7.37-1.38-3.64,0-6.47.57-8.49,1.71-1.49.84-2.63,1.91-3.44,3.21.8,1.99,1.2,4.39,1.2,7.17,0,1.95-.28,3.76-.84,5.41h9.54c-.31-.88-.53-1.79-.66-2.73-.14-.94-.2-1.95-.2-3.04,0-1.94.17-3.25.51-3.93.34-.68.9-1.02,1.68-1.02.48,0,.84.15,1.1.46.26.31.43.78.54,1.43.1.65.15,1.51.15,2.6,0,4.12-1,7.42-3.01,9.9-2.01,2.48-4.18,4.24-6.5,5.28-1.14.51-2.13.89-2.95,1.15v9.64h23.29v-9.23h-16.38v-.51Z"/>
      <path class="cls-2" d="M75.62,69.81c2.62-1.09,4.9-2.75,6.84-5,1.94-2.24,2.91-5.07,2.91-8.47,0-2.69-.4-4.91-1.2-6.68-.8-1.77-2.13-3.11-3.98-4.03-1.85-.92-4.31-1.38-7.37-1.38-3.64,0-6.47.57-8.49,1.71-1.02.57-1.88,1.26-2.58,2.05.9,1.65,1.36,3.63,1.36,5.88,0,1.78-.19,3.36-.58,4.71-.33,1.16-.91,2.22-1.71,3.14h9.96c-.31-.88-.53-1.79-.66-2.73-.14-.94-.2-1.95-.2-3.04,0-1.94.17-3.25.51-3.93.34-.68.9-1.02,1.68-1.02.48,0,.84.15,1.1.46.26.31.43.78.54,1.43.1.65.15,1.51.15,2.6,0,4.12-1,7.42-3.01,9.9-2.01,2.48-4.18,4.24-6.5,5.28-.13.06-.25.11-.37.16.08.69.12,1.41.12,2.16,0,2.84-.76,5.21-2.25,7.04-.43.52-.9,1-1.43,1.43h24.27v-9.23h-16.38v-.51c2.24-.2,4.68-.85,7.3-1.94Z"/>
      <path class="cls-2" d="M59.97,66.6c-1.16-1.6-3.18-2.67-6.07-3.21l-1.07-.15v-.46l1.07-.15c1.9-.31,3.35-.88,4.34-1.71.99-.83,1.64-1.82,1.96-2.96.32-1.14.48-2.49.48-4.06,0-2.24-.52-4.08-1.56-5.51-1.04-1.43-2.54-2.48-4.52-3.16-1.97-.68-4.39-1-7.24-.97-3.67,0-6.54.48-8.6,1.45-.6.28-1.14.59-1.63.93v11.54h8.85c-.34-1.16-.51-2.3-.51-3.42,0-1.56.14-2.58.41-3.04.27-.46.7-.69,1.28-.69.61,0,1.05.37,1.3,1.1.26.73.38,2.15.38,4.26,0,1.36-.07,2.39-.2,3.09-.14.7-.4,1.18-.79,1.45-.39.27-.98.41-1.76.41-.58,0-1.11-.03-1.58-.1v3.67c.44-.14.97-.2,1.58-.2.92,0,1.59.25,2.02.74.42.49.69,1.12.79,1.89.1.77.15,1.85.15,3.24,0,2.01-.14,3.37-.41,4.08-.27.71-.75,1.07-1.43,1.07s-1.19-.31-1.53-.92c-.34-.61-.51-1.79-.51-3.52,0-1.22.19-2.52.56-3.88h-8.59v12.7c.4.27.83.53,1.3.77,2.11,1.09,5.08,1.63,8.93,1.63,3.03,0,5.6-.31,7.73-.94,2.13-.63,3.76-1.64,4.9-3.04,1.14-1.39,1.71-3.23,1.71-5.51,0-2.69-.58-4.83-1.73-6.43Z"/>
      <path class="cls-2" d="M24.48,45.27c-.65,1.4-1.44,2.68-2.37,3.85-.94,1.17-1.95,2.19-3.04,3.04-1.09.85-2.21,1.51-3.37,1.99v3.78c1.12-.54,2.43-1.44,3.93-2.68,1.5-1.24,2.94-2.68,4.34-4.31l.36.26-1.89,2.24v28.06h12.3v-36.22h-10.25Z"/>
    </g>
  </g>
</svg>