<?xml version="1.0" encoding="UTF-8"?>
<svg id="Ebene_2" xmlns="http://www.w3.org/2000/svg" viewBox="0 0 223.97 89.88">
  <defs>
    <style>
      .cls-1 {
        fill: #cdfb7c;
      }
    </style>
  </defs>
  <g id="Ebene_2-2" data-name="Ebene_2">
    <g>
      <path class="cls-1" d="M183.94,64.6c5.27-.48,10.98-2,17.14-4.55,6.15-2.56,11.5-6.47,16.06-11.74,4.55-5.27,6.83-11.9,6.83-19.89,0-6.31-.94-11.54-2.82-15.7-1.88-4.15-4.99-7.31-9.35-9.47C207.45,1.08,201.68,0,194.49,0c-8.55,0-15.2,1.34-19.95,4.01-3.49,1.97-6.18,4.48-8.08,7.55,1.87,4.66,2.82,10.32,2.82,16.84,0,4.58-.67,8.82-1.98,12.7h22.4c-.72-2.08-1.24-4.21-1.56-6.41-.32-2.2-.48-4.57-.48-7.13,0-4.55.4-7.63,1.2-9.23.8-1.6,2.12-2.4,3.95-2.4,1.12,0,1.98.36,2.58,1.08.6.72,1.02,1.84,1.26,3.36.24,1.52.36,3.56.36,6.11,0,9.67-2.36,17.42-7.07,23.25-4.71,5.83-9.81,9.97-15.28,12.4-2.68,1.2-5,2.1-6.94,2.7v22.64h54.69v-21.69h-38.47v-1.2Z"/>
      <path class="cls-1" d="M140.72,60.04c6.15-2.56,11.5-6.47,16.06-11.74,4.55-5.27,6.83-11.9,6.83-19.89,0-6.31-.94-11.54-2.82-15.7-1.88-4.15-4.99-7.31-9.35-9.47C147.09,1.08,141.32,0,134.13,0c-8.55,0-15.2,1.34-19.95,4.01-2.39,1.35-4.41,2.95-6.06,4.82,2.12,3.88,3.19,8.52,3.19,13.82,0,4.18-.46,7.9-1.35,11.07-.78,2.73-2.13,5.21-4.02,7.38h23.4c-.72-2.08-1.24-4.21-1.56-6.41-.32-2.2-.48-4.57-.48-7.13,0-4.55.4-7.63,1.2-9.23.8-1.6,2.12-2.4,3.95-2.4,1.12,0,1.98.36,2.58,1.08.6.72,1.02,1.84,1.26,3.36.24,1.52.36,3.56.36,6.11,0,9.67-2.36,17.42-7.07,23.25-4.71,5.83-9.81,9.97-15.28,12.4-.3.13-.59.26-.88.39.19,1.62.29,3.3.29,5.07,0,6.67-1.78,12.23-5.29,16.52-1,1.22-2.12,2.34-3.36,3.37h57v-21.69h-38.47v-1.2c5.27-.48,10.98-2,17.14-4.55Z"/>
      <path class="cls-1" d="M103.98,52.49c-2.72-3.75-7.47-6.27-14.26-7.55l-2.52-.36v-1.08l2.52-.36c4.47-.72,7.87-2.06,10.19-4.01,2.32-1.96,3.85-4.27,4.61-6.95.76-2.68,1.14-5.85,1.14-9.53,0-5.27-1.22-9.59-3.65-12.94-2.44-3.36-5.97-5.83-10.61-7.43C86.76.69,81.09-.07,74.38,0,65.75,0,59.02,1.14,54.18,3.42c-1.4.66-2.67,1.39-3.82,2.2v27.1h20.78c-.8-2.72-1.2-5.39-1.2-8.03,0-3.67.32-6.05.96-7.13.64-1.08,1.64-1.62,3-1.62,1.44,0,2.46.86,3.06,2.58.6,1.72.9,5.05.9,10.01,0,3.2-.16,5.61-.48,7.25-.32,1.64-.94,2.78-1.86,3.42-.92.64-2.3.96-4.13.96-1.36,0-2.6-.08-3.71-.24v8.63c1.04-.32,2.28-.48,3.71-.48,2.16,0,3.73.58,4.73,1.74,1,1.16,1.62,2.64,1.86,4.43.24,1.8.36,4.33.36,7.61,0,4.71-.32,7.91-.96,9.59-.64,1.68-1.76,2.52-3.36,2.52s-2.8-.72-3.6-2.16c-.8-1.44-1.2-4.19-1.2-8.27,0-2.88.44-5.91,1.32-9.11h-20.18v29.82c.94.64,1.95,1.25,3.05,1.81,4.95,2.56,11.94,3.83,20.97,3.83,7.11,0,13.16-.74,18.16-2.22,4.99-1.48,8.83-3.85,11.5-7.13,2.68-3.28,4.01-7.59,4.01-12.94,0-6.31-1.36-11.34-4.07-15.1Z"/>
      <path class="cls-1" d="M20.61,2.4c-1.52,3.28-3.38,6.29-5.57,9.05-2.2,2.76-4.57,5.13-7.13,7.13-2.56,2-5.19,3.56-7.91,4.67v8.87c2.64-1.28,5.71-3.37,9.23-6.29,3.51-2.92,6.91-6.29,10.19-10.13l.84.6-4.43,5.27v65.91h28.88V2.4h-24.09Z"/>
    </g>
  </g>
</svg>