<?xml version="1.0" encoding="UTF-8"?>
<svg id="Logo_x5F_White" xmlns="http://www.w3.org/2000/svg" version="1.1" viewBox="0 0 223.97 89.88">
  <!-- Generator: Adobe Illustrator 29.5.0, SVG Export Plug-In . SVG Version: 2.1.0 Build 137)  -->
  <defs>
    <style>
      .st0 {
        fill: #efefef;
      }
    </style>
  </defs>
  <path class="st0" d="M180.73,63.72c5.03-.46,10.49-1.91,16.37-4.35,5.88-2.45,10.99-6.18,15.34-11.22,4.35-5.03,6.52-11.37,6.52-19,0-6.03-.9-11.02-2.69-15-1.8-3.96-4.77-6.98-8.93-9.05-4.16-2.07-9.67-3.1-16.54-3.1-8.17,0-14.52,1.28-19.06,3.83-3.33,1.88-5.9,4.28-7.72,7.21,1.79,4.45,2.69,9.86,2.69,16.09,0,4.38-.64,8.43-1.89,12.13h21.4c-.69-1.99-1.18-4.02-1.49-6.12-.31-2.1-.46-4.37-.46-6.81,0-4.35.38-7.29,1.15-8.82.76-1.53,2.03-2.29,3.77-2.29,1.07,0,1.89.34,2.46,1.03s.97,1.76,1.2,3.21c.23,1.45.34,3.4.34,5.84,0,9.24-2.25,16.64-6.75,22.21-4.5,5.57-9.37,9.52-14.6,11.85-2.56,1.15-4.78,2.01-6.63,2.58v21.63h52.25v-20.72h-36.75v-1.15.02Z"/>
  <path id="svg-stage" class="st0" d="M139.44,59.37c5.88-2.45,10.99-6.18,15.34-11.22,4.35-5.03,6.52-11.37,6.52-19,0-6.03-.9-11.02-2.69-15-1.8-3.96-4.77-6.98-8.93-9.05-4.16-2.06-9.67-3.1-16.54-3.1-8.17,0-14.52,1.28-19.06,3.83-2.28,1.29-4.21,2.82-5.79,4.6,2.03,3.71,3.05,8.14,3.05,13.2,0,3.99-.44,7.55-1.29,10.58-.75,2.61-2.03,4.98-3.84,7.05h22.35c-.69-1.99-1.18-4.02-1.49-6.12-.31-2.1-.46-4.37-.46-6.81,0-4.35.38-7.29,1.15-8.82.76-1.53,2.03-2.29,3.77-2.29,1.07,0,1.89.34,2.46,1.03s.97,1.76,1.2,3.21c.23,1.45.34,3.4.34,5.84,0,9.24-2.25,16.64-6.75,22.21-4.5,5.57-9.37,9.52-14.6,11.85-.29.12-.56.25-.84.37.18,1.55.28,3.15.28,4.84,0,6.37-1.7,11.68-5.05,15.78-.96,1.17-2.03,2.24-3.21,3.22h54.45v-20.72h-36.75v-1.15c5.03-.46,10.49-1.91,16.37-4.35h0Z"/>
  <path id="svg-stage1" data-name="svg-stage" class="st0" d="M104.34,52.15c-2.6-3.58-7.14-5.99-13.62-7.21l-2.41-.34v-1.03l2.41-.34c4.27-.69,7.52-1.97,9.73-3.83,2.22-1.87,3.68-4.08,4.4-6.64s1.09-5.59,1.09-9.1c0-5.03-1.17-9.16-3.49-12.36-2.33-3.21-5.7-5.57-10.14-7.1-4.43-1.52-9.85-2.25-16.26-2.18-8.24,0-14.67,1.09-19.3,3.27-1.34.63-2.55,1.33-3.65,2.1v25.89h19.85c-.76-2.6-1.15-5.15-1.15-7.67,0-3.51.31-5.78.92-6.81.61-1.03,1.57-1.55,2.87-1.55,1.38,0,2.35.82,2.92,2.46s.86,4.82.86,9.56c0,3.06-.15,5.36-.46,6.93s-.9,2.66-1.78,3.27-2.2.92-3.95.92c-1.3,0-2.48-.08-3.54-.23v8.24c.99-.31,2.18-.46,3.54-.46,2.06,0,3.56.55,4.52,1.66s1.55,2.52,1.78,4.23c.23,1.72.34,4.14.34,7.27,0,4.5-.31,7.56-.92,9.16-.61,1.6-1.68,2.41-3.21,2.41s-2.67-.69-3.44-2.06c-.76-1.38-1.15-4-1.15-7.9,0-2.75.42-5.65,1.26-8.7h-19.28v28.49c.9.61,1.86,1.19,2.91,1.73,4.73,2.45,11.41,3.66,20.03,3.66,6.79,0,12.57-.71,17.35-2.12,4.77-1.41,8.44-3.68,10.99-6.81,2.56-3.13,3.83-7.25,3.83-12.36,0-6.03-1.3-10.83-3.89-14.43h0Z"/>
  <path id="svg-stage2" data-name="svg-stage" class="st0" d="M24.69,4.3c-1.45,3.13-3.23,6.01-5.32,8.65-2.1,2.64-4.37,4.9-6.81,6.81-2.45,1.91-4.96,3.4-7.56,4.46v8.47c2.52-1.22,5.45-3.22,8.82-6.01,3.35-2.79,6.6-6.01,9.73-9.68l.8.57-4.23,5.03v62.97h27.59V4.3h-23.02Z"/>
</svg>